<svg width="20" height="20" viewBox="0 0 20 20" fill="none" xmlns="http://www.w3.org/2000/svg">
<path d="M11.875 2.49988C12.318 2.49973 12.7538 2.61169 13.1419 2.82533C13.5299 3.03897 13.8576 3.34734 14.0944 3.72173C14.3312 4.09612 14.4694 4.52434 14.4961 4.96652C14.5228 5.4087 14.4372 5.85045 14.2473 6.25063L16.75 6.24988C16.9489 6.24988 17.1397 6.3289 17.2803 6.46955C17.421 6.6102 17.5 6.80097 17.5 6.99988V9.99988C17.5 10.1988 17.421 10.3896 17.2803 10.5302C17.1397 10.6709 16.9489 10.7499 16.75 10.7499H16V16.7499C16 16.9488 15.921 17.1396 15.7803 17.2802C15.6397 17.4209 15.4489 17.4999 15.25 17.4999H4.75C4.55109 17.4999 4.36032 17.4209 4.21967 17.2802C4.07902 17.1396 4 16.9488 4 16.7499V10.7499H3.25C3.05109 10.7499 2.86032 10.6709 2.71967 10.5302C2.57902 10.3896 2.5 10.1988 2.5 9.99988V6.99988C2.5 6.80097 2.57902 6.6102 2.71967 6.46955C2.86032 6.3289 3.05109 6.24988 3.25 6.24988L5.75275 6.25063C5.48557 5.68938 5.42622 5.05153 5.58528 4.45063C5.74433 3.84973 6.11147 3.32476 6.62132 2.9692C7.13118 2.61363 7.75068 2.45053 8.36952 2.50893C8.98837 2.56734 9.56642 2.84345 10.0008 3.28813C10.2445 3.03803 10.536 2.83939 10.858 2.70399C11.1799 2.56859 11.5257 2.49918 11.875 2.49988V2.49988ZM14.5 10.7499H5.5V15.9999H14.5V10.7499ZM16 7.74988H4V9.24988H16V7.74988ZM8.125 3.99988C7.83609 4.00002 7.5583 4.11131 7.34921 4.31069C7.14012 4.51006 7.01574 4.78224 7.00186 5.07082C6.98797 5.3594 7.08564 5.64226 7.27463 5.86078C7.46362 6.07931 7.72944 6.21675 8.017 6.24463L8.125 6.24988H9.25V5.12488C9.24999 4.84522 9.14581 4.57559 8.95779 4.36857C8.76976 4.16155 8.51137 4.03198 8.233 4.00513L8.125 3.99988ZM11.875 3.99988L11.767 4.00513C11.507 4.03004 11.2638 4.14461 11.0791 4.32921C10.8944 4.51381 10.7796 4.75693 10.7545 5.01688L10.75 5.12488V6.24988H11.875L11.983 6.24463C12.2613 6.21765 12.5195 6.08803 12.7074 5.88102C12.8953 5.67401 12.9994 5.40446 12.9994 5.12488C12.9994 4.84531 12.8953 4.57575 12.7074 4.36874C12.5195 4.16173 12.2613 4.03211 11.983 4.00513L11.875 3.99988Z" fill="#FA7319"/>
</svg>
