<svg width="40" height="40" viewBox="0 0 40 40" fill="none" xmlns="http://www.w3.org/2000/svg">
<path d="M0 20C0 8.95431 8.95431 0 20 0C31.0457 0 40 8.95431 40 20C40 31.0457 31.0457 40 20 40C8.95431 40 0 31.0457 0 20Z" fill="#335CFF"/>
<path opacity="0.48" d="M15.4236 25.3192C15.0544 25.3192 14.7092 25.5027 14.5026 25.8088L12.1686 29.2673C11.6705 30.0053 12.1993 31 13.0896 31H24.5105C24.8797 31 25.2249 30.8165 25.4315 30.5104L33.8299 18.066C34.3279 17.328 33.7992 16.3333 32.9089 16.3333H25.1818C24.8125 16.3333 24.4674 16.5168 24.2608 16.8229L19.3528 24.0953C18.8364 24.8605 17.9735 25.3192 17.0503 25.3192H15.4236Z" fill="url(#paint0_linear_2844_12739)"/>
<path d="M13.667 10.0303C14.0747 9.38864 14.7822 9 15.5425 9H24.9777C25.8542 9 26.3856 9.96737 25.9154 10.7071L18.3338 22.6364C17.926 23.278 17.2186 23.6667 16.4583 23.6667H7.02307C6.14659 23.6667 5.61519 22.6993 6.08532 21.9596L13.667 10.0303Z" fill="url(#paint1_linear_2844_12739)"/>
<defs>
<linearGradient id="paint0_linear_2844_12739" x1="22.9993" y1="16.3333" x2="22.9993" y2="38.5732" gradientUnits="userSpaceOnUse">
<stop offset="0.313079" stop-color="white"/>
<stop offset="1" stop-color="white" stop-opacity="0"/>
</linearGradient>
<linearGradient id="paint1_linear_2844_12739" x1="16.0005" y1="9" x2="16.0005" y2="28.3944" gradientUnits="userSpaceOnUse">
<stop offset="0.38239" stop-color="white"/>
<stop offset="1" stop-color="white" stop-opacity="0"/>
</linearGradient>
</defs>
</svg>
