<svg width="16" height="16" viewBox="0 0 16 16" fill="none" xmlns="http://www.w3.org/2000/svg">
<path d="M6.2 1.3999V2.5999H9.8V1.3999H11V2.5999H13.4C13.5591 2.5999 13.7117 2.66312 13.8243 2.77564C13.9368 2.88816 14 3.04077 14 3.1999V12.7999C14 12.959 13.9368 13.1116 13.8243 13.2242C13.7117 13.3367 13.5591 13.3999 13.4 13.3999H2.6C2.44087 13.3999 2.28826 13.3367 2.17574 13.2242C2.06321 13.1116 2 12.959 2 12.7999V3.1999C2 3.04077 2.06321 2.88816 2.17574 2.77564C2.28826 2.66312 2.44087 2.5999 2.6 2.5999H5V1.3999H6.2ZM12.8 6.7999H3.2V12.1999H12.8V6.7999ZM9.8216 7.4815L10.67 8.3299L7.7 11.2999L5.5784 9.1783L6.428 8.3299L7.7006 9.6031L9.8222 7.4815H9.8216ZM5 3.7999H3.2V5.5999H12.8V3.7999H11V4.3999H9.8V3.7999H6.2V4.3999H5V3.7999Z" fill="#F963AB"/>
</svg>
