<svg width="16" height="16" viewBox="0 0 16 16" fill="none" xmlns="http://www.w3.org/2000/svg">
<path d="M2 6.5001V3.2001C2 3.04097 2.06321 2.88836 2.17574 2.77583C2.28826 2.66331 2.44087 2.6001 2.6 2.6001H13.4C13.5591 2.6001 13.7117 2.66331 13.8243 2.77583C13.9368 2.88836 14 3.04097 14 3.2001V6.5001C13.6022 6.5001 13.2206 6.65813 12.9393 6.93944C12.658 7.22074 12.5 7.60227 12.5 8.0001C12.5 8.39792 12.658 8.77945 12.9393 9.06076C13.2206 9.34206 13.6022 9.5001 14 9.5001V12.8001C14 12.9592 13.9368 13.1118 13.8243 13.2244C13.7117 13.3369 13.5591 13.4001 13.4 13.4001H2.6C2.44087 13.4001 2.28826 13.3369 2.17574 13.2244C2.06321 13.1118 2 12.9592 2 12.8001V9.5001C2.39782 9.5001 2.77936 9.34206 3.06066 9.06076C3.34196 8.77945 3.5 8.39792 3.5 8.0001C3.5 7.60227 3.34196 7.22074 3.06066 6.93944C2.77936 6.65813 2.39782 6.5001 2 6.5001ZM9.2 3.8001H3.2V5.5809C3.65073 5.80428 4.03008 6.14913 4.2953 6.57657C4.56052 7.00402 4.70105 7.49706 4.70105 8.0001C4.70105 8.50314 4.56052 8.99618 4.2953 9.42362C4.03008 9.85107 3.65073 10.1959 3.2 10.4193V12.2001H9.2V3.8001ZM10.4 3.8001V12.2001H12.8V10.4193C12.3493 10.1959 11.9699 9.85107 11.7047 9.42362C11.4395 8.99618 11.2989 8.50314 11.2989 8.0001C11.2989 7.49706 11.4395 7.00402 11.7047 6.57657C11.9699 6.14913 12.3493 5.80428 12.8 5.5809V3.8001H10.4Z" fill="#F963AB"/>
</svg>
