<svg width="24" height="24" viewBox="0 0 24 24" fill="none" xmlns="http://www.w3.org/2000/svg">
<path d="M19.1984 3C19.6952 3 20.0984 3.4032 20.0984 3.9V7.2813L18.2984 9.0813V4.8H5.69844V19.2H18.2984V16.7178L20.0984 14.9178V20.1C20.0984 20.5968 19.6952 21 19.1984 21H4.79844C4.30164 21 3.89844 20.5968 3.89844 20.1V3.9C3.89844 3.4032 4.30164 3 4.79844 3H19.1984ZM20.7986 9.1272L22.0712 10.3998L15.071 17.4L13.7966 17.3982L13.7984 16.1274L20.7986 9.1272ZM12.8984 12V13.8H8.39844V12H12.8984ZM15.5984 8.4V10.2H8.39844V8.4H15.5984Z" fill="#5335E9"/>
</svg>
