<svg width="24" height="24" viewBox="0 0 24 24" fill="none" xmlns="http://www.w3.org/2000/svg">
<path d="M19.057 8.41149L19.2625 7.94009C19.6287 7.09956 20.2884 6.43034 21.1116 6.06423L21.7446 5.78268C22.0869 5.63044 22.0869 5.13234 21.7446 4.9801L21.147 4.71428C20.3026 4.33876 19.6311 3.64477 19.2711 2.77569L19.0601 2.26628C18.9131 1.91124 18.4228 1.91124 18.2757 2.26628L18.0647 2.77569C17.7048 3.64477 17.0333 4.33876 16.189 4.71428L15.5913 4.9801C15.2491 5.13234 15.2491 5.63044 15.5913 5.78268L16.2244 6.06423C17.0476 6.43034 17.7072 7.09956 18.0735 7.94009L18.2789 8.41149C18.4293 8.7566 18.9066 8.7566 19.057 8.41149ZM4.54688 11.1667H6.22684C6.6312 13.9936 9.06238 16.1667 12.0011 16.1667C14.9398 16.1667 17.371 13.9936 17.7754 11.1667H19.4553C19.0711 14.643 16.3108 17.4033 12.8345 17.7876V21.1667H11.1678V17.7876C7.69142 17.4033 4.93117 14.643 4.54688 11.1667ZM12.0013 2.83333C9.70012 2.83333 7.83463 4.69882 7.83463 7V10.3333C7.83463 12.6345 9.70012 14.5 12.0013 14.5C14.3025 14.5 16.168 12.6345 16.168 10.3333V7.83333H14.5013V10.3333C14.5013 11.7141 13.3821 12.8333 12.0013 12.8333C10.6206 12.8333 9.5013 11.7141 9.5013 10.3333V7C9.5013 5.61929 10.6206 4.5 12.0013 4.5C12.499 4.5 12.9604 4.64457 13.3488 4.89373L14.2487 3.49092C13.5998 3.07464 12.8275 2.83333 12.0013 2.83333Z" fill="#E6A819"/>
</svg>
