<svg width="20" height="20" viewBox="0 0 20 20" fill="none" xmlns="http://www.w3.org/2000/svg">
<path d="M14.4115 15.4728C13.0924 16.3094 11.562 16.7525 9.99999 16.75C5.95599 16.75 2.59149 13.84 1.88574 10C2.20826 8.25304 3.08696 6.65717 4.39074 5.4505L2.04399 3.106L3.10524 2.04475L17.9545 16.8947L16.8932 17.9552L14.4107 15.4728H14.4115ZM5.45124 6.5125C4.432 7.43919 3.72198 8.65659 3.41724 10C3.65146 11.0248 4.12169 11.9809 4.79049 12.7919C5.4593 13.603 6.30821 14.2468 7.26966 14.672C8.2311 15.0972 9.27853 15.292 10.3286 15.2411C11.3786 15.1901 12.4022 14.8948 13.318 14.3785L11.797 12.8575C11.1495 13.2654 10.3826 13.4411 9.62217 13.3558C8.8617 13.2706 8.15277 12.9294 7.61167 12.3883C7.07057 11.8472 6.72941 11.1383 6.64416 10.3778C6.55891 9.61735 6.73463 8.85048 7.14249 8.203L5.45124 6.5125ZM10.6855 11.746L8.25399 9.3145C8.12054 9.6542 8.08913 10.0255 8.16362 10.3828C8.23811 10.7401 8.41526 11.0678 8.67333 11.3259C8.93141 11.584 9.25919 11.7611 9.61648 11.8356C9.97378 11.9101 10.345 11.8787 10.6847 11.7452L10.6855 11.746ZM16.6052 13.444L15.532 12.3715C16.0333 11.657 16.3903 10.8514 16.5827 10C16.3789 9.10729 15.9957 8.26536 15.4564 7.52537C14.917 6.78538 14.2328 6.1628 13.4454 5.69545C12.658 5.22811 11.7837 4.92578 10.8758 4.80682C9.96787 4.68787 9.04525 4.75478 8.16399 5.0035L6.98049 3.82C7.91574 3.4525 8.93499 3.25 9.99999 3.25C14.044 3.25 17.4085 6.16 18.1142 10C17.8844 11.2493 17.3679 12.4282 16.6052 13.444V13.444ZM9.79224 6.631C10.2696 6.6015 10.7478 6.6738 11.1951 6.84311C11.6425 7.01243 12.0487 7.27488 12.3869 7.61309C12.7251 7.95129 12.9876 8.35752 13.1569 8.80484C13.3262 9.25217 13.3985 9.73037 13.369 10.2078L9.79149 6.631H9.79224Z" fill="#95969A"/>
</svg>
