<svg width="24" height="24" viewBox="0 0 24 24" fill="none" xmlns="http://www.w3.org/2000/svg">
<path d="M12 19.2C13.9096 19.2 15.7409 18.4414 17.0912 17.0912C18.4414 15.7409 19.2 13.9096 19.2 12C19.2 10.0904 18.4414 8.25909 17.0912 6.90883C15.7409 5.55857 13.9096 4.8 12 4.8C10.0904 4.8 8.25909 5.55857 6.90883 6.90883C5.55857 8.25909 4.8 10.0904 4.8 12C4.8 13.9096 5.55857 15.7409 6.90883 17.0912C8.25909 18.4414 10.0904 19.2 12 19.2ZM12 21C7.0293 21 3 16.9707 3 12C3 7.0293 7.0293 3 12 3C16.9707 3 21 7.0293 21 12C21 16.9707 16.9707 21 12 21ZM12 15.6C12.9548 15.6 13.8705 15.2207 14.5456 14.5456C15.2207 13.8705 15.6 12.9548 15.6 12C15.6 11.0452 15.2207 10.1295 14.5456 9.45442C13.8705 8.77928 12.9548 8.4 12 8.4C11.0452 8.4 10.1295 8.77928 9.45442 9.45442C8.77928 10.1295 8.4 11.0452 8.4 12C8.4 12.9548 8.77928 13.8705 9.45442 14.5456C10.1295 15.2207 11.0452 15.6 12 15.6ZM12 17.4C10.5678 17.4 9.19432 16.8311 8.18162 15.8184C7.16893 14.8057 6.6 13.4322 6.6 12C6.6 10.5678 7.16893 9.19432 8.18162 8.18162C9.19432 7.16893 10.5678 6.6 12 6.6C13.4322 6.6 14.8057 7.16893 15.8184 8.18162C16.8311 9.19432 17.4 10.5678 17.4 12C17.4 13.4322 16.8311 14.8057 15.8184 15.8184C14.8057 16.8311 13.4322 17.4 12 17.4ZM12 13.8C11.5226 13.8 11.0648 13.6104 10.7272 13.2728C10.3896 12.9352 10.2 12.4774 10.2 12C10.2 11.5226 10.3896 11.0648 10.7272 10.7272C11.0648 10.3896 11.5226 10.2 12 10.2C12.4774 10.2 12.9352 10.3896 13.2728 10.7272C13.6104 11.0648 13.8 11.5226 13.8 12C13.8 12.4774 13.6104 12.9352 13.2728 13.2728C12.9352 13.6104 12.4774 13.8 12 13.8Z" fill="#FB3748"/>
</svg>
