<svg width="20" height="20" viewBox="0 0 20 20" fill="none" xmlns="http://www.w3.org/2000/svg">
<path d="M15.25 16.75H4.75C4.55109 16.75 4.36032 16.671 4.21967 16.5303C4.07902 16.3897 4 16.1989 4 16V9.25H1.75L9.49525 2.209C9.63333 2.08336 9.81331 2.01373 10 2.01373C10.1867 2.01373 10.3667 2.08336 10.5048 2.209L18.25 9.25H16V16C16 16.1989 15.921 16.3897 15.7803 16.5303C15.6397 16.671 15.4489 16.75 15.25 16.75ZM10.75 15.25H14.5V7.86775L10 3.77725L5.5 7.86775V15.25H9.25V10.75H10.75V15.25Z" fill="#E9358F"/>
</svg>
