<svg width="41" height="41" viewBox="0 0 41 41" fill="none" xmlns="http://www.w3.org/2000/svg">
<mask id="path-2-inside-1_1_72076" fill="white">
<path d="M20.2578 0C24.3317 4.85802e-08 28.3109 1.22827 31.676 3.52446C35.041 5.82065 37.6356 9.07808 39.121 12.8715C40.6064 16.6649 40.9136 20.818 40.0024 24.7886C39.0913 28.7593 37.0042 32.363 34.0135 35.1293C31.0229 37.8955 27.2676 39.6959 23.2381 40.2952C19.2086 40.8945 15.092 40.265 11.4257 38.4889C7.75943 36.7128 4.71383 33.8725 2.68652 30.3389C0.659208 26.8053 -0.255625 22.7426 0.0614533 18.6811L3.09091 18.9176C2.82139 22.3699 3.599 25.8232 5.32221 28.8267C7.04543 31.8303 9.63419 34.2445 12.7505 35.7542C15.8669 37.264 19.366 37.799 22.7911 37.2896C26.2162 36.7801 29.4081 35.2499 31.9502 32.8985C34.4922 30.5472 36.2663 27.4841 37.0408 24.109C37.8152 20.734 37.5541 17.2038 36.2915 13.9794C35.029 10.755 32.8236 7.98623 29.9632 6.03446C27.1029 4.0827 23.7206 3.03867 20.2578 3.03867V0Z"/>
</mask>
<path d="M20.2578 0C24.3317 4.85802e-08 28.3109 1.22827 31.676 3.52446C35.041 5.82065 37.6356 9.07808 39.121 12.8715C40.6064 16.6649 40.9136 20.818 40.0024 24.7886C39.0913 28.7593 37.0042 32.363 34.0135 35.1293C31.0229 37.8955 27.2676 39.6959 23.2381 40.2952C19.2086 40.8945 15.092 40.265 11.4257 38.4889C7.75943 36.7128 4.71383 33.8725 2.68652 30.3389C0.659208 26.8053 -0.255625 22.7426 0.0614533 18.6811L3.09091 18.9176C2.82139 22.3699 3.599 25.8232 5.32221 28.8267C7.04543 31.8303 9.63419 34.2445 12.7505 35.7542C15.8669 37.264 19.366 37.799 22.7911 37.2896C26.2162 36.7801 29.4081 35.2499 31.9502 32.8985C34.4922 30.5472 36.2663 27.4841 37.0408 24.109C37.8152 20.734 37.5541 17.2038 36.2915 13.9794C35.029 10.755 32.8236 7.98623 29.9632 6.03446C27.1029 4.0827 23.7206 3.03867 20.2578 3.03867V0Z" stroke="#322FEB" stroke-width="6.7526" mask="url(#path-2-inside-1_1_72076)"/>
</svg>
