<svg width="101" height="33" viewBox="0 0 101 33" fill="none" xmlns="http://www.w3.org/2000/svg">
<g clip-path="url(#clip0_965_12870)">
<path fill-rule="evenodd" clip-rule="evenodd" d="M43.7879 10.7967C42.6776 12.9992 40.3935 14.5196 37.7699 14.5196H6.81045C3.10677 14.5196 0.078125 11.4899 0.078125 7.78724C0.078125 6.33337 0.54562 4.98328 1.33653 3.88004C0.879113 4.78681 0.621185 5.80946 0.621185 6.88953C0.621185 10.5932 3.65083 13.6219 7.35351 13.6219H38.3129C40.5628 13.6219 42.5627 12.5045 43.7879 10.7957V10.7967Z" fill="black" stroke="black" stroke-width="0.157175" stroke-miterlimit="22.9256" stroke-linejoin="round"/>
<path fill-rule="evenodd" clip-rule="evenodd" d="M7.3544 0.156647H38.3138C42.0165 0.156647 45.0462 3.18629 45.0462 6.88897C45.0462 10.5917 42.0165 13.6213 38.3138 13.6213H7.3544C3.65172 13.6213 0.62207 10.5917 0.62207 6.88897C0.62207 3.18629 3.65172 0.156647 7.3544 0.156647Z" stroke="black" stroke-width="0.313342" stroke-miterlimit="22.9256" stroke-linejoin="round"/>
<path d="M9.04303 28.3304C11.0329 23.6826 12.0223 20.9472 12.0223 20.1311C12.0223 19.7381 11.9155 19.3442 11.7009 18.9452C11.4863 18.5523 11.2777 18.2843 11.0752 18.1523C10.8727 18.0213 10.5624 17.9437 10.1574 17.9195C9.87726 17.9074 9.74024 17.8006 9.74024 17.5981C9.74024 17.3362 9.88935 17.2052 10.1936 17.2052L13.2807 17.1337C14.7708 17.1337 15.6051 17.1458 15.7895 17.175C15.9738 17.2052 16.0696 17.2999 16.0696 17.4672C16.0696 17.6163 15.8791 17.7533 15.4912 17.8843C14.794 18.1291 14.4484 18.4626 14.4484 18.8968C14.4484 19.0218 14.5562 19.4036 14.7698 20.0354C14.9844 20.6731 15.4137 21.7451 16.0514 23.2534L18.1612 28.1037C18.9602 26.1138 19.6805 24.1471 20.3304 22.1985C20.9742 20.25 21.2956 19.1296 21.2956 18.8374C21.2956 18.248 20.9259 17.9135 20.1813 17.848C19.7521 17.8006 19.5375 17.6636 19.5375 17.4369C19.5375 17.2697 19.7219 17.1689 20.0977 17.1387C20.4674 17.1085 21.2422 17.0974 22.4271 17.0974C23.2079 17.0974 23.7026 17.1155 23.9223 17.1508C24.1429 17.181 24.2557 17.2757 24.2557 17.4248C24.2557 17.574 24.023 17.7462 23.5585 17.9548C22.9802 18.2107 22.546 18.5452 22.2538 18.9623C21.9616 19.3855 21.6281 20.2489 21.2583 21.5608C20.949 22.6338 20.275 24.5279 19.2382 27.2513L17.5516 31.7147C17.4559 31.9827 17.337 32.1136 17.1819 32.1136C17.0328 32.1136 16.8544 31.8154 16.6398 31.226C16.4907 30.8391 15.996 29.6532 15.1497 27.6563C13.994 24.9864 13.1477 22.9129 12.6167 21.4298L12.4918 21.5487C12.1583 22.5441 11.6576 23.867 11.0017 25.5052L9.19617 29.9505C8.66016 31.2794 8.34984 31.9766 8.26017 32.0421C8.17655 32.1136 8.10502 32.1489 8.04557 32.1489C7.89041 32.1489 7.71812 31.899 7.52165 31.3983L4.88192 24.8917L2.886 20.2913C2.37317 19.1054 1.99836 18.4203 1.75958 18.2349C1.52079 18.0505 1.2407 17.9427 0.931389 17.9195C0.532406 17.8722 0.335938 17.7644 0.335938 17.586C0.335938 17.3301 0.597896 17.2042 1.12282 17.2042L5.08544 17.1327L6.72973 17.1679C7.06927 17.1679 7.23652 17.2576 7.23652 17.4299C7.23652 17.6626 7.00983 17.8107 6.55745 17.8823C5.71716 18.0253 5.30005 18.3115 5.30005 18.7467C5.30005 19.3664 6.54536 22.5602 9.04202 28.3283L9.04303 28.3304ZM22.8432 24.5048C22.8432 22.4605 23.5817 20.661 25.0598 19.1064C26.5378 17.5508 28.3554 16.777 30.5125 16.777C32.5326 16.777 34.2787 17.4742 35.7386 18.8686C37.1985 20.257 37.932 21.997 37.932 24.0887C37.932 26.1984 37.1632 28.0573 35.6257 29.6482C34.0883 31.2451 32.2948 32.0441 30.2506 32.0441C28.2244 32.0441 26.4844 31.3116 25.0245 29.8396C23.5706 28.3737 22.8432 26.5974 22.8432 24.5068V24.5048ZM25.6673 24.409C25.6673 26.405 26.1318 28.0624 27.0557 29.3792C27.9856 30.7021 29.1292 31.363 30.4944 31.363C31.7397 31.363 32.8359 30.7434 33.79 29.5041C34.7371 28.2649 35.2147 26.6196 35.2147 24.5642C35.2147 22.7345 34.7552 21.1023 33.8444 19.6716C32.9266 18.2409 31.7407 17.5266 30.2868 17.5266C28.9337 17.5266 27.8254 18.1765 26.962 19.4812C26.0985 20.786 25.6693 22.4313 25.6693 24.409H25.6673ZM41.6951 20.7567C42.4397 19.452 43.2326 18.4747 44.0789 17.8248C44.9192 17.175 45.8069 16.8475 46.7429 16.8475C47.3927 16.8475 47.9529 17.0803 48.4234 17.5387C48.8939 18.0032 49.1327 18.5281 49.1327 19.1114C49.1327 20.2258 48.6562 20.7799 47.702 20.7799C47.2607 20.7799 46.8799 20.4706 46.5756 19.85C46.1998 19.0631 45.7001 18.6701 45.0794 18.6701C44.49 18.6701 43.8875 18.9976 43.2618 19.6475C42.6422 20.2973 42.2251 21.0056 42.0105 21.7804C41.8019 22.5552 41.6951 24.1703 41.6951 26.6307C41.6951 28.8895 41.7908 30.1822 41.9752 30.5096C42.1656 30.8431 42.6422 31.0517 43.417 31.1474C43.6255 31.1716 43.7323 31.2603 43.7323 31.4033C43.7323 31.6592 43.4583 31.7902 42.9162 31.7902H37.3859C36.993 31.7902 36.7965 31.6834 36.7965 31.4749C36.7965 31.2844 37.0524 31.1706 37.5652 31.1474C38.2866 31.1001 38.7269 30.8734 38.9002 30.4683C39.0735 30.0573 39.1561 28.5611 39.1561 25.9637C39.1561 22.1623 39.0786 19.8741 38.9234 19.1054C38.7622 18.3367 38.1788 17.9316 37.1713 17.8843C36.7542 17.8601 36.5456 17.7533 36.5456 17.5508C36.5456 17.449 36.5869 17.3724 36.6766 17.318C36.7602 17.2646 37.2902 17.2102 38.2614 17.1568L41.4432 16.9896C41.5208 17.6153 41.6044 18.8727 41.6931 20.7557L41.6951 20.7567ZM52.1039 8.01651C52.1392 8.45781 52.1573 8.77317 52.1573 8.95754L52.1039 10.8225L52.1815 17.5145L52.1936 24.4332C54.1603 23.0801 55.6142 21.8832 56.5612 20.8404C57.5083 19.8036 57.9859 19.0591 57.9859 18.6178C57.9859 18.1654 57.5567 17.8964 56.6983 17.8137C56.2459 17.7664 56.0192 17.6525 56.0192 17.4742C56.0192 17.3372 56.0786 17.2536 56.2036 17.2243C56.3225 17.1891 56.8413 17.1709 57.7471 17.1709L60.4171 17.1891C60.9773 17.1891 61.484 17.177 61.9364 17.1538C62.4009 17.1538 62.6336 17.2606 62.6336 17.4813C62.6336 17.6546 62.5027 17.7674 62.2347 17.8148C61.4186 17.9518 60.7274 18.1785 60.1491 18.4999C59.5768 18.8152 58.8624 19.4298 57.998 20.3296L56.4484 21.9325C58.1169 22.7426 59.3803 24.9954 60.2387 28.6961C60.4473 29.5958 60.7516 30.2215 61.1506 30.5731C61.5495 30.9248 62.283 31.1152 63.3611 31.1514C63.7127 31.1756 63.885 31.2824 63.885 31.4728C63.885 31.6875 63.5928 31.7943 63.0094 31.7943H58.7788C58.3496 31.4184 58.0695 31.0436 57.9325 30.6557C57.8015 30.2689 57.6766 29.6724 57.5567 28.8684C57.1517 26.0614 56.0373 24.3698 54.2137 23.7854C54.1543 23.8448 53.4812 24.3335 52.1936 25.2574C52.1821 25.583 52.1761 25.9088 52.1755 26.2347C52.1755 28.4392 52.3125 29.8044 52.5865 30.3223C52.8606 30.8411 53.3371 31.1152 54.0112 31.1504C54.3749 31.1625 54.5532 31.2814 54.5532 31.5021C54.5532 31.6985 54.1835 31.7943 53.4389 31.7943H48.3972C47.7836 31.7943 47.4733 31.6925 47.4733 31.496C47.4733 31.3116 47.6103 31.1978 47.8904 31.1504C48.4798 31.0547 48.8496 30.954 49.0048 30.8351C49.166 30.7222 49.3322 30.4835 49.5115 30.1197C49.6899 29.7621 49.7795 29.083 49.7795 28.0815L49.7614 25.3763L49.5821 13.0834C49.5821 11.7011 49.445 10.7358 49.165 10.1817C48.8909 9.62755 48.3428 9.28801 47.5207 9.16308C47.2285 9.11573 47.0794 9.00792 47.0794 8.84168C47.0794 8.63916 47.562 8.50818 48.5332 8.44874C48.9745 8.41348 49.4511 8.35907 49.9518 8.28754C50.9171 8.13238 51.6384 8.04271 52.1029 8.01953L52.1039 8.01651Z" fill="black"/>
<path d="M66.4114 19.3927C67.8179 17.6467 69.4864 16.7772 71.4108 16.7772C72.9483 16.7772 74.1221 17.2124 74.9382 18.088C75.7603 18.9585 76.1714 20.5131 76.1714 22.7478L76.0646 27.3774C76.0646 28.8554 76.0827 29.7552 76.118 30.0705C76.1532 30.3808 76.3145 30.6549 76.6127 30.8866C76.9109 31.1254 77.2021 31.2443 77.4882 31.2564C77.8036 31.2564 77.9587 31.3279 77.9587 31.471C77.9587 31.6856 77.7028 31.7924 77.19 31.7924H72.0002C71.8037 31.745 71.702 31.6433 71.702 31.4881C71.702 31.3209 71.839 31.2201 72.107 31.1838C72.9412 31.077 73.4299 30.7546 73.585 30.2126C73.7342 29.6766 73.8117 27.9537 73.8117 25.052C73.8117 21.9357 73.5014 19.9277 72.8818 19.0219C72.2622 18.1222 71.44 17.6698 70.4204 17.6698C69.4249 17.6698 68.5434 18.0507 67.7867 18.8083C67.03 19.571 66.5767 20.6914 66.4396 22.1634C66.3026 23.6415 66.2311 25.4409 66.2311 27.5618C66.2311 29.0035 66.3087 29.9456 66.4578 30.3859C66.6129 30.8272 67.0472 31.1184 67.7565 31.2554C68.0487 31.3027 68.1978 31.4105 68.1978 31.5768C68.1978 31.7672 68.0608 31.8629 67.7807 31.8629L64.2593 31.7914C63.5027 31.7914 62.8407 31.8095 62.2866 31.8448C61.935 31.8448 61.7627 31.7491 61.7627 31.5586C61.7627 31.3914 61.8997 31.2906 62.1798 31.2544C62.7339 31.1828 63.1097 31.0277 63.3062 30.7839C63.5027 30.539 63.6699 29.604 63.807 27.9648C63.944 26.3316 64.0155 24.246 64.0155 21.6959L63.9561 12.7631C63.9148 11.3506 63.7062 10.3259 63.3304 9.69421C62.9606 9.05644 62.5022 8.69272 61.9662 8.58592C61.6387 8.51439 61.4775 8.40154 61.4775 8.24034C61.4775 8.14462 61.5128 8.09122 61.5904 8.07309C61.668 8.05495 62.0438 8.04891 62.7228 8.04891C63.8614 8.04891 65.0946 8.01364 66.4114 7.94211L66.358 16.618C66.358 17.7202 66.3762 18.6441 66.4114 19.3887V19.3927ZM79.8418 23.6415C79.7945 24.2309 79.7703 24.7024 79.7703 25.054C79.7703 26.6983 80.2589 28.0927 81.2302 29.2312C82.2075 30.3698 83.4115 30.935 84.8472 30.935C86.2538 30.935 87.5525 30.3748 88.7565 29.2605C89.1081 28.9451 89.3287 28.79 89.4234 28.79C89.6078 28.79 89.7096 28.9391 89.7217 29.2433C89.2743 30.0594 88.5177 30.7506 87.4457 31.3108C86.3726 31.871 85.1817 32.1511 83.8649 32.1511C81.9345 32.1511 80.2952 31.4539 78.9552 30.0655C77.6142 28.6711 76.9472 26.9069 76.9472 24.78C76.9472 22.4979 77.6797 20.5907 79.1517 19.0653C80.6237 17.5399 82.1964 16.7772 83.8709 16.7772C85.4437 16.7772 86.8623 17.3726 88.1318 18.5706C89.4013 19.7685 90.033 21.169 90.033 22.783C90.033 23.0279 89.9977 23.2062 89.9202 23.3251C89.8426 23.4379 89.3962 23.4974 88.5852 23.4974L79.8438 23.6405L79.8418 23.6415ZM79.8418 22.7478C81.3551 22.8193 82.8271 22.8556 84.2518 22.8556L85.1817 22.8022C85.879 22.778 86.415 22.641 86.7908 22.3911C87.1666 22.1352 87.351 21.6939 87.351 21.0622C87.351 20.0788 87.0175 19.2154 86.3434 18.4819C85.6704 17.7494 84.8835 17.3857 83.9717 17.3857C83.1314 17.3857 82.2911 17.8028 81.4569 18.6431C80.6227 19.4834 80.0867 20.8476 79.8418 22.7488V22.7478ZM93.5644 20.7579C94.309 19.4532 95.1019 18.4759 95.9482 17.826C96.7885 17.1761 97.6761 16.8487 98.6121 16.8487C99.262 16.8487 99.8222 17.0814 100.293 17.5399C100.763 18.0043 101.002 18.5292 101.002 19.1126C101.002 20.2269 100.525 20.7811 99.5723 20.7811C99.131 20.7811 98.7502 20.4718 98.4459 19.8511C98.0701 19.0642 97.5703 18.6713 96.9507 18.6713C96.3613 18.6713 95.7588 18.9988 95.1331 19.6486C94.5135 20.2985 94.0964 21.0068 93.8818 21.7816C93.6732 22.5564 93.5664 24.1714 93.5664 26.6318C93.5664 28.8907 93.6621 30.1834 93.8465 30.5108C94.0369 30.8443 94.5135 31.0529 95.2883 31.1486C95.4968 31.1728 95.6036 31.2614 95.6036 31.4045C95.6036 31.6604 95.3296 31.7914 94.7875 31.7914H89.2572C88.8643 31.7914 88.6678 31.6846 88.6678 31.476C88.6678 31.2856 88.9237 31.1718 89.4365 31.1486C90.1579 31.1012 90.5982 30.8745 90.7715 30.4695C90.9448 30.0584 91.0274 28.5623 91.0274 25.9648C91.0274 22.1634 90.9499 19.8753 90.7947 19.1066C90.6335 18.3378 90.0501 17.9328 89.0426 17.8854C88.6255 17.8613 88.4169 17.7545 88.4169 17.5519C88.4169 17.4502 88.4582 17.3736 88.5479 17.3192C88.6315 17.2658 89.1615 17.2114 90.1327 17.158L93.3145 16.9907C93.3921 17.6164 93.4757 18.8738 93.5644 20.7569V20.7579Z" fill="#F963AB"/>
<path d="M7.72108 6.37532C8.0314 5.83226 8.36087 5.42622 8.71249 5.1562C9.06211 4.88619 9.43187 4.75017 9.82078 4.75017C10.0908 4.75017 10.3235 4.84689 10.52 5.03732C10.7155 5.23076 10.8152 5.4494 10.8152 5.69221C10.8152 6.15568 10.6167 6.3864 10.2198 6.3864C10.0364 6.3864 9.87821 6.25744 9.75126 5.99951C9.59509 5.67206 9.38653 5.50884 9.1286 5.50884C8.88277 5.50884 8.6329 5.64486 8.37296 5.91588C8.11503 6.1859 7.94173 6.48111 7.85206 6.80352C7.76541 7.12593 7.72108 7.79795 7.72108 8.8216C7.72108 9.76062 7.76038 10.2986 7.83796 10.4357C7.91755 10.5747 8.11603 10.6614 8.43744 10.7007C8.52409 10.7107 8.56842 10.748 8.56842 10.8074C8.56842 10.9142 8.45457 10.9687 8.22888 10.9687H5.92868C5.76546 10.9687 5.68385 10.9243 5.68385 10.8377C5.68385 10.7581 5.79065 10.7117 6.00324 10.7017C6.30349 10.6815 6.48686 10.5878 6.55839 10.4196C6.62993 10.2483 6.66519 9.62662 6.66519 8.54554C6.66519 6.96372 6.63295 6.01261 6.56847 5.69221C6.50197 5.37282 6.25815 5.20356 5.84002 5.18442C5.66673 5.17434 5.58008 5.13001 5.58008 5.04538C5.58008 5.00306 5.59721 4.97082 5.63448 4.94865C5.66874 4.92649 5.88939 4.90432 6.29442 4.88216L7.61831 4.81264C7.65056 5.07258 7.68481 5.5965 7.72209 6.37935L7.72108 6.37532ZM11.3301 7.57529C11.3099 7.82113 11.3008 8.01659 11.3008 8.16268C11.3008 8.84679 11.5044 9.42713 11.9084 9.90067C12.3154 10.3742 12.8152 10.61 13.4126 10.61C13.998 10.61 14.538 10.3772 15.0388 9.91377C15.1849 9.78279 15.2766 9.71831 15.3169 9.71831C15.3934 9.71831 15.4358 9.77977 15.4408 9.90672C15.2554 10.2463 14.94 10.5334 14.4937 10.7671C14.0474 10.9999 13.5517 11.1168 13.0036 11.1168C12.2006 11.1168 11.5185 10.8266 10.9613 10.2493C10.4031 9.66894 10.1261 8.93546 10.1261 8.05084C10.1261 7.10175 10.4313 6.30781 11.0429 5.67307C11.6555 5.03832 12.3094 4.72095 13.0066 4.72095C13.6615 4.72095 14.2509 4.9688 14.7788 5.46753C15.3068 5.96525 15.5698 6.54861 15.5698 7.21963C15.5698 7.32139 15.5546 7.39595 15.5224 7.44532C15.4902 7.49267 15.3038 7.51685 14.9672 7.51685L11.3311 7.5763L11.3301 7.57529ZM11.3301 7.20351C11.9412 7.23294 12.5529 7.24772 13.1648 7.24784L13.5517 7.22567C13.8418 7.2156 14.0645 7.15918 14.2207 7.05439C14.3768 6.9476 14.4534 6.76423 14.4534 6.50126C14.4534 6.0922 14.3144 5.73251 14.0343 5.42824C13.7542 5.12296 13.4267 4.97183 13.0479 4.97183C12.6983 4.97183 12.3487 5.14512 12.0021 5.49474C11.6555 5.84435 11.4318 6.41159 11.3301 7.2025V7.20351ZM16.9894 4.727C17.0468 4.91037 17.076 5.07862 17.076 5.23278L17.0538 5.92193C17.4135 5.51791 17.7752 5.21766 18.142 5.01717C18.5117 4.81868 18.8835 4.71994 19.2603 4.71994C19.6049 4.71994 19.9243 4.80155 20.2195 4.9678C20.5147 5.13102 20.7827 5.37887 21.0255 5.70934C21.3701 5.37685 21.7167 5.129 22.0663 4.96578C22.4179 4.80256 22.7706 4.71994 23.1222 4.71994C23.5927 4.71994 23.9826 4.81667 24.295 5.01011C24.6073 5.20356 24.8028 5.41716 24.8804 5.65191C24.9569 5.88767 24.9972 6.31386 24.9972 6.93349L24.967 9.65987C24.967 10.0568 25.0063 10.3269 25.0889 10.4709C25.1685 10.612 25.3317 10.6845 25.5826 10.6845C25.7488 10.6845 25.8305 10.7319 25.8305 10.8205C25.8305 10.9173 25.6965 10.9666 25.4315 10.9666H23.1978C22.9801 10.9666 22.8703 10.9193 22.8703 10.8276C22.8703 10.748 22.9328 10.7017 23.0587 10.6916C23.4557 10.6714 23.7005 10.5828 23.7973 10.4185C23.894 10.2573 23.9413 9.38481 23.9413 7.80299C23.9413 7.06447 23.9141 6.53149 23.8567 6.20404C23.8023 5.87659 23.6703 5.61161 23.4628 5.40305C23.2542 5.19449 22.9993 5.09072 22.697 5.09072C22.429 5.09072 22.1711 5.17233 21.9212 5.33353C21.6704 5.49474 21.4255 5.73755 21.1898 6.065C20.9913 6.69974 20.8925 7.81508 20.8925 9.41403C20.8925 9.97422 20.9369 10.3289 21.0265 10.478C21.1182 10.6241 21.3167 10.6986 21.622 10.6986H21.7459C21.9021 10.6986 21.9787 10.741 21.9787 10.8276C21.9787 10.9193 21.8819 10.9666 21.6885 10.9666H19.2392C18.9944 10.9666 18.8694 10.9193 18.8694 10.8226C18.8694 10.7258 18.9389 10.6765 19.08 10.6765C19.3722 10.6765 19.5737 10.615 19.6754 10.4931C19.7792 10.3692 19.8518 10.0145 19.886 9.43015C19.9233 8.84478 19.9404 8.26746 19.9404 7.6972C19.9404 6.66851 19.8387 5.99145 19.6382 5.66702C19.4377 5.3426 19.1445 5.18139 18.7626 5.18139C18.4332 5.18139 18.1057 5.31237 17.7833 5.57332C17.4609 5.83327 17.2453 6.18792 17.1334 6.63224C17.0216 7.07555 16.9652 7.85941 16.9652 8.98281C16.9652 9.77574 17.0045 10.2594 17.0821 10.4357C17.1586 10.612 17.3501 10.7007 17.6543 10.7007C17.7762 10.7007 17.8498 10.7077 17.877 10.7228C17.9042 10.7379 17.9163 10.7802 17.9163 10.8467C17.9163 10.9284 17.8226 10.9687 17.6342 10.9687H15.3854C15.1204 10.9687 14.9864 10.9193 14.9864 10.8226C14.9864 10.7379 15.0358 10.6916 15.1325 10.6865C15.3924 10.6765 15.5718 10.6271 15.6655 10.5374C15.7592 10.4478 15.8287 10.1828 15.874 9.7445C15.9163 9.30522 15.9385 8.59189 15.9385 7.60249L15.9214 5.80808C15.9093 5.5975 15.8367 5.43126 15.7078 5.30532C15.5768 5.17837 15.3531 5.1149 15.0408 5.10986C14.9149 5.10482 14.8524 5.0625 14.8524 4.98392C14.8524 4.93153 14.8695 4.89425 14.9018 4.8751C14.937 4.85294 15.1546 4.82271 15.5587 4.78342C15.9607 4.74412 16.3173 4.72397 16.6267 4.72397C16.7032 4.72397 16.8251 4.72599 16.9884 4.73103L16.9894 4.727ZM25.1746 7.93498C25.1746 7.08462 25.4818 6.33602 26.0964 5.68919C26.711 5.04235 27.4677 4.71994 28.3644 4.71994C29.2047 4.71994 29.9311 5.01011 30.5387 5.59045C31.1462 6.16777 31.4505 6.89218 31.4505 7.76168C31.4505 8.63924 31.1311 9.41302 30.4913 10.075C29.8515 10.7389 29.1059 11.0714 28.2556 11.0714C27.4123 11.0714 26.6889 10.7661 26.0813 10.1546C25.4768 9.54501 25.1735 8.80649 25.1735 7.93598L25.1746 7.93498ZM26.3493 7.89568C26.3493 8.72589 26.5428 9.41504 26.9266 9.96314C27.3135 10.5132 27.7891 10.7883 28.3573 10.7883C28.8752 10.7883 29.3316 10.5304 29.7286 10.0145C30.1225 9.49867 30.321 8.81455 30.321 7.95916C30.321 7.19847 30.1296 6.5194 29.7508 5.92394C29.3689 5.3295 28.8762 5.03127 28.2707 5.03127C27.7075 5.03127 27.247 5.30129 26.8874 5.84435C26.5277 6.38741 26.3493 7.07152 26.3493 7.89468V7.89568ZM33.2479 5.40406C33.1834 6.47506 33.1512 7.52592 33.1512 8.55763C33.1512 9.35358 33.2459 9.87145 33.4363 10.1123C33.6267 10.3551 33.8998 10.477 34.2564 10.477C34.5144 10.477 34.8015 10.3833 35.1139 10.1918C35.2257 10.1253 35.2952 10.0901 35.3194 10.0901C35.3839 10.0901 35.4161 10.1243 35.4161 10.1918C35.4161 10.3057 35.2428 10.4891 34.8982 10.7399C34.5516 10.9908 34.1295 11.1168 33.6267 11.1168C33.131 11.1168 32.7592 10.9455 32.5114 10.6009C32.2635 10.2583 32.1396 9.74551 32.1396 9.06442C32.1396 8.3531 32.184 7.13298 32.2736 5.40507C32.2394 5.39499 32.0107 5.37988 31.5875 5.35771L31.1532 5.33051C31.0464 5.32547 30.9951 5.28819 30.9951 5.22169C30.9951 5.15721 31.0545 5.10784 31.1734 5.06754C31.3689 4.99601 31.6993 4.7804 32.1628 4.42574C32.6263 4.07109 32.8963 3.57035 32.9739 2.92352C32.994 2.75223 33.0484 2.66861 33.1371 2.66861C33.2267 2.66861 33.2711 2.73511 33.2711 2.87213C33.2711 2.91646 33.2691 2.9618 33.264 3.01117C33.2489 3.19958 33.2419 3.41821 33.2419 3.66304L33.2499 4.79551L34.8317 4.7804C35.1018 4.7804 35.2408 4.81264 35.2509 4.8741C35.2458 5.09978 35.2116 5.24084 35.1421 5.30028C34.8922 5.30028 34.2625 5.33454 33.2509 5.40406H33.2479ZM35.8504 7.57529C35.8302 7.82113 35.8211 8.01659 35.8211 8.16268C35.8211 8.84679 36.0247 9.42713 36.4287 9.90067C36.8357 10.3742 37.3355 10.61 37.9329 10.61C38.5183 10.61 39.0583 10.3772 39.5591 9.91377C39.7052 9.78279 39.7969 9.71831 39.8372 9.71831C39.9137 9.71831 39.956 9.77977 39.9611 9.90672C39.7757 10.2463 39.4603 10.5334 39.014 10.7671C38.5677 10.9999 38.072 11.1168 37.5239 11.1168C36.7209 11.1168 36.0388 10.8266 35.4816 10.2493C34.9234 9.66894 34.6464 8.93546 34.6464 8.05084C34.6464 7.10175 34.9516 6.30781 35.5632 5.67307C36.1758 5.03832 36.8297 4.72095 37.5269 4.72095C38.1818 4.72095 38.7712 4.9688 39.2991 5.46753C39.8271 5.96525 40.09 6.54861 40.09 7.21963C40.09 7.32139 40.0749 7.39595 40.0427 7.44532C40.0105 7.49267 39.8241 7.51685 39.4875 7.51685L35.8514 7.5763L35.8504 7.57529ZM35.8504 7.20351C36.4615 7.23294 37.0732 7.24772 37.6851 7.24784L38.072 7.22567C38.3621 7.2156 38.5848 7.15918 38.741 7.05439C38.8971 6.9476 38.9737 6.76423 38.9737 6.50126C38.9737 6.0922 38.8347 5.73251 38.5546 5.42824C38.2745 5.12296 37.947 4.97183 37.5682 4.97183C37.2186 4.97183 36.869 5.14512 36.5224 5.49474C36.1758 5.84435 35.9521 6.41159 35.8504 7.2025V7.20351Z" fill="black"/>
</g>
<defs>
<clipPath id="clip0_965_12870">
<rect width="101" height="32.1485" fill="white"/>
</clipPath>
</defs>
</svg>
