<svg width="18" height="18" viewBox="0 0 18 18" fill="none" xmlns="http://www.w3.org/2000/svg">
<path d="M8.99688 15.0075L12.3381 11.6663C12.9989 11.0054 13.4488 10.1635 13.6311 9.24697C13.8134 8.33043 13.7198 7.38041 13.3622 6.51706C13.0045 5.65371 12.3989 4.91579 11.6219 4.39662C10.8449 3.87745 9.93137 3.60035 8.99688 3.60035C8.06238 3.60035 7.14887 3.87745 6.37186 4.39662C5.59485 4.91579 4.98923 5.65371 4.63159 6.51706C4.27395 7.38041 4.18036 8.33043 4.36263 9.24697C4.54491 10.1635 4.99487 11.0054 5.65563 11.6663L8.99688 15.0075ZM8.99688 16.9164L4.70118 12.6207C3.85158 11.7711 3.273 10.6886 3.0386 9.51021C2.8042 8.33177 2.92451 7.1103 3.38432 6.00024C3.84412 4.89019 4.62277 3.9414 5.6218 3.27388C6.62082 2.60635 7.79536 2.25006 8.99688 2.25006C10.1984 2.25006 11.3729 2.60635 12.372 3.27388C13.371 3.9414 14.1496 4.89019 14.6094 6.00024C15.0692 7.1103 15.1896 8.33177 14.9552 9.51021C14.7208 10.6886 14.1422 11.7711 13.2926 12.6207L8.99688 16.9164ZM8.99688 9.67501C9.35492 9.67501 9.6983 9.53278 9.95147 9.2796C10.2046 9.02643 10.3469 8.68305 10.3469 8.32501C10.3469 7.96697 10.2046 7.62359 9.95147 7.37041C9.6983 7.11724 9.35492 6.97501 8.99688 6.97501C8.63884 6.97501 8.29546 7.11724 8.04228 7.37041C7.78911 7.62359 7.64688 7.96697 7.64688 8.32501C7.64688 8.68305 7.78911 9.02643 8.04228 9.2796C8.29546 9.53278 8.63884 9.67501 8.99688 9.67501ZM8.99688 11.025C8.28079 11.025 7.59404 10.7405 7.08769 10.2342C6.58134 9.72785 6.29688 9.04109 6.29688 8.32501C6.29688 7.60892 6.58134 6.92217 7.08769 6.41582C7.59404 5.90947 8.28079 5.62501 8.99688 5.62501C9.71296 5.62501 10.3997 5.90947 10.9061 6.41582C11.4124 6.92217 11.6969 7.60892 11.6969 8.32501C11.6969 9.04109 11.4124 9.72785 10.9061 10.2342C10.3997 10.7405 9.71296 11.025 8.99688 11.025Z" fill="#F963AB"/>
</svg>
