<svg width="24" height="24" viewBox="0 0 24 24" fill="none" xmlns="http://www.w3.org/2000/svg">
<path d="M16.138 2.13601L21.8503 7.84741C21.9091 7.90617 21.9505 7.9801 21.9699 8.06098C21.9893 8.14186 21.9859 8.22654 21.9601 8.3056C21.9343 8.38466 21.887 8.45502 21.8236 8.50886C21.7602 8.5627 21.6832 8.59792 21.601 8.61061L20.2744 8.81761L15.184 3.72721L15.3748 2.39071C15.3866 2.30806 15.4212 2.23034 15.4747 2.16625C15.5283 2.10216 15.5985 2.05421 15.6777 2.02778C15.7569 2.00135 15.8419 1.99748 15.9232 2.01659C16.0045 2.0357 16.0788 2.07705 16.138 2.13601ZM5.33706 19.335C8.68686 16.3371 12.5326 15.4398 16.7158 14.367L17.1172 10.7508L13.2499 6.88351L9.63366 7.28491C8.56086 11.4681 7.66356 15.3129 4.66566 18.6636L3.41016 17.409C5.95536 14.439 6.91116 11.1513 8.18286 5.63611L13.9105 4.99981L19.0018 10.0911L18.3655 15.8187C12.8503 17.0913 9.56166 18.0462 6.59256 20.5914L5.33706 19.335ZM10.0927 13.908C9.92074 13.742 9.78361 13.5433 9.68927 13.3237C9.59494 13.1041 9.54528 12.8679 9.54321 12.6289C9.54113 12.3899 9.58667 12.1529 9.67718 11.9317C9.76768 11.7105 9.90134 11.5095 10.0703 11.3405C10.2394 11.1715 10.4403 11.0378 10.6615 10.9473C10.8828 10.8568 11.1198 10.8113 11.3588 10.8134C11.5978 10.8154 11.834 10.8651 12.0536 10.9594C12.2732 11.0538 12.4718 11.1909 12.6379 11.3628C12.9612 11.7031 13.1389 12.1562 13.133 12.6256C13.127 13.0949 12.938 13.5434 12.6061 13.8754C12.2743 14.2074 11.8258 14.3966 11.3565 14.4027C10.8871 14.4088 10.4339 14.2313 10.0936 13.908H10.0927Z" fill="#335CFF"/>
</svg>
