<svg width="20" height="20" viewBox="0 0 20 20" fill="none" xmlns="http://www.w3.org/2000/svg">
<path d="M14.9028 15.6752C13.5418 16.8545 11.8008 17.5025 10 17.5C5.85775 17.5 2.5 14.1423 2.5 10C2.5 5.85775 5.85775 2.5 10 2.5C14.1423 2.5 17.5 5.85775 17.5 10C17.5 11.602 16.9975 13.087 16.1425 14.305L13.75 10H16C15.9999 8.61716 15.5221 7.2768 14.6475 6.20567C13.7729 5.13454 12.5551 4.39839 11.2002 4.12177C9.84536 3.84514 8.4365 4.04501 7.21201 4.68757C5.98752 5.33013 5.02257 6.37593 4.48039 7.64806C3.93822 8.92019 3.8521 10.3405 4.23662 11.6689C4.62113 12.9972 5.45267 14.1519 6.59056 14.9377C7.72845 15.7235 9.10284 16.0921 10.4812 15.9812C11.8596 15.8703 13.1574 15.2866 14.155 14.329L14.9028 15.6752Z" fill="#161A21"/>
</svg>
