<svg width="20" height="20" viewBox="0 0 20 20" fill="none" xmlns="http://www.w3.org/2000/svg">
<path d="M7.51356 4.00004L9.46881 2.04479C9.60945 1.90418 9.80018 1.8252 9.99906 1.8252C10.1979 1.8252 10.3887 1.90418 10.5293 2.04479L12.4846 4.00004H15.2491C15.448 4.00004 15.6387 4.07905 15.7794 4.21971C15.92 4.36036 15.9991 4.55112 15.9991 4.75004V7.51453L17.9543 9.46979C18.0949 9.61043 18.1739 9.80116 18.1739 10C18.1739 10.1989 18.0949 10.3896 17.9543 10.5303L15.9991 12.4855V15.25C15.9991 15.4489 15.92 15.6397 15.7794 15.7804C15.6387 15.921 15.448 16 15.2491 16H12.4846L10.5293 17.9553C10.3887 18.0959 10.1979 18.1749 9.99906 18.1749C9.80018 18.1749 9.60945 18.0959 9.46881 17.9553L7.51356 16H4.74906C4.55015 16 4.35938 15.921 4.21873 15.7804C4.07808 15.6397 3.99906 15.4489 3.99906 15.25V12.4855L2.04381 10.5303C1.90321 10.3896 1.82422 10.1989 1.82422 10C1.82422 9.80116 1.90321 9.61043 2.04381 9.46979L3.99906 7.51453V4.75004C3.99906 4.55112 4.07808 4.36036 4.21873 4.21971C4.35938 4.07905 4.55015 4.00004 4.74906 4.00004H7.51356ZM5.49906 5.50003V8.13629L3.63531 10L5.49906 11.8638V14.5H8.13531L9.99906 16.3638L11.8628 14.5H14.4991V11.8638L16.3628 10L14.4991 8.13629V5.50003H11.8628L9.99906 3.63629L8.13531 5.50003H5.49906ZM9.99906 13C9.20341 13 8.44035 12.684 7.87774 12.1214C7.31513 11.5587 6.99906 10.7957 6.99906 10C6.99906 9.20438 7.31513 8.44132 7.87774 7.87871C8.44035 7.31611 9.20341 7.00003 9.99906 7.00003C10.7947 7.00003 11.5578 7.31611 12.1204 7.87871C12.683 8.44132 12.9991 9.20438 12.9991 10C12.9991 10.7957 12.683 11.5587 12.1204 12.1214C11.5578 12.684 10.7947 13 9.99906 13ZM9.99906 11.5C10.3969 11.5 10.7784 11.342 11.0597 11.0607C11.341 10.7794 11.4991 10.3979 11.4991 10C11.4991 9.60221 11.341 9.22068 11.0597 8.93937C10.7784 8.65807 10.3969 8.50003 9.99906 8.50003C9.60123 8.50003 9.2197 8.65807 8.9384 8.93937C8.65709 9.22068 8.49906 9.60221 8.49906 10C8.49906 10.3979 8.65709 10.7794 8.9384 11.0607C9.2197 11.342 9.60123 11.5 9.99906 11.5Z" fill="#6A6D71"/>
</svg>
