<svg width="18" height="18" viewBox="0 0 18 18" fill="none" xmlns="http://www.w3.org/2000/svg">
<path d="M3.45351 2.80756L8.99999 1.57501L14.5465 2.80756C14.6964 2.84088 14.8304 2.92431 14.9265 3.04409C15.0226 3.16386 15.075 3.31281 15.075 3.46636V10.2076C15.0749 10.8743 14.9103 11.5307 14.5957 12.1185C14.281 12.7063 13.8261 13.2074 13.2714 13.5772L8.99999 16.425L4.72859 13.5772C4.17392 13.2074 3.7191 12.7065 3.40447 12.1188C3.08985 11.5311 2.92515 10.8749 2.92499 10.2083V3.46636C2.92501 3.31281 2.97739 3.16386 3.07348 3.04409C3.16957 2.92431 3.30362 2.84088 3.45351 2.80756ZM4.27499 4.00771V10.2076C4.275 10.652 4.38473 11.0896 4.59444 11.4815C4.80415 11.8734 5.10736 12.2074 5.47716 12.454L8.99999 14.803L12.5228 12.454C12.8925 12.2075 13.1957 11.8736 13.4054 11.4818C13.6151 11.0901 13.7249 10.6526 13.725 10.2083V4.00771L8.99999 2.95876L4.27499 4.00771Z" fill="#6A6D71"/>
</svg>
