<svg width="18" height="18" viewBox="0 0 18 18" fill="none" xmlns="http://www.w3.org/2000/svg">
<path d="M2.25 7.31249V3.59999C2.25 3.42097 2.32112 3.24928 2.4477 3.12269C2.57429 2.9961 2.74598 2.92499 2.925 2.92499H15.075C15.254 2.92499 15.4257 2.9961 15.5523 3.12269C15.6789 3.24928 15.75 3.42097 15.75 3.59999V7.31249C15.3024 7.31249 14.8732 7.49028 14.5568 7.80675C14.2403 8.12321 14.0625 8.55243 14.0625 8.99999C14.0625 9.44754 14.2403 9.87676 14.5568 10.1932C14.8732 10.5097 15.3024 10.6875 15.75 10.6875V14.4C15.75 14.579 15.6789 14.7507 15.5523 14.8773C15.4257 15.0039 15.254 15.075 15.075 15.075H2.925C2.74598 15.075 2.57429 15.0039 2.4477 14.8773C2.32112 14.7507 2.25 14.579 2.25 14.4V10.6875C2.69755 10.6875 3.12678 10.5097 3.44324 10.1932C3.75971 9.87676 3.9375 9.44754 3.9375 8.99999C3.9375 8.55243 3.75971 8.12321 3.44324 7.80675C3.12678 7.49028 2.69755 7.31249 2.25 7.31249ZM10.35 4.27499H3.6V6.27839C4.10707 6.52969 4.53384 6.91765 4.83222 7.39852C5.13059 7.8794 5.28869 8.43407 5.28869 8.99999C5.28869 9.56591 5.13059 10.1206 4.83222 10.6015C4.53384 11.0823 4.10707 11.4703 3.6 11.7216V13.725H10.35V4.27499ZM11.7 4.27499V13.725H14.4V11.7216C13.8929 11.4703 13.4662 11.0823 13.1678 10.6015C12.8694 10.1206 12.7113 9.56591 12.7113 8.99999C12.7113 8.43407 12.8694 7.8794 13.1678 7.39852C13.4662 6.91765 13.8929 6.52969 14.4 6.27839V4.27499H11.7Z" fill="#F963AB"/>
</svg>
