<svg width="24" height="24" viewBox="0 0 24 24" fill="none" xmlns="http://www.w3.org/2000/svg">
<path d="M4.79844 3H19.1984C19.4371 3 19.6661 3.09482 19.8348 3.2636C20.0036 3.43239 20.0984 3.66131 20.0984 3.9V20.1C20.0984 20.3387 20.0036 20.5676 19.8348 20.7364C19.6661 20.9052 19.4371 21 19.1984 21H4.79844C4.55974 21 4.33082 20.9052 4.16204 20.7364C3.99326 20.5676 3.89844 20.3387 3.89844 20.1V3.9C3.89844 3.66131 3.99326 3.43239 4.16204 3.2636C4.33082 3.09482 4.55974 3 4.79844 3ZM5.69844 4.8V19.2H18.2984V4.8H5.69844ZM7.49844 6.6H16.4984V10.2H7.49844V6.6ZM7.49844 12H9.29844V13.8H7.49844V12ZM7.49844 15.6H9.29844V17.4H7.49844V15.6ZM11.0984 12H12.8984V13.8H11.0984V12ZM11.0984 15.6H12.8984V17.4H11.0984V15.6ZM14.6984 12H16.4984V17.4H14.6984V12Z" fill="#1DAF61"/>
</svg>
