<svg width="24" height="24" viewBox="0 0 24 24" fill="none" xmlns="http://www.w3.org/2000/svg">
<path d="M20.0984 8.4V20.0937C20.0993 20.2119 20.0768 20.3291 20.0323 20.4386C19.9879 20.5481 19.9223 20.6478 19.8393 20.7319C19.7563 20.8161 19.6576 20.8831 19.5487 20.9291C19.4398 20.9751 19.3229 20.9992 19.2047 21H4.79214C4.55527 21 4.32809 20.906 4.16051 20.7386C3.99294 20.5712 3.89868 20.3441 3.89844 20.1072V3.8928C3.89844 3.4095 4.30254 3 4.80024 3H14.6957L20.0984 8.4ZM18.2984 9.3H13.7984V4.8H5.69844V19.2H18.2984V9.3ZM8.39844 7.5H11.0984V9.3H8.39844V7.5ZM8.39844 11.1H15.5984V12.9H8.39844V11.1ZM8.39844 14.7H15.5984V16.5H8.39844V14.7Z" fill="#1DAF9C"/>
</svg>
