<svg width="24" height="24" viewBox="0 0 24 24" fill="none" xmlns="http://www.w3.org/2000/svg">
<path d="M3 4.80039C3 4.5617 3.09482 4.33278 3.2636 4.16399C3.43239 3.99521 3.66131 3.90039 3.9 3.90039H20.1C20.3387 3.90039 20.5676 3.99521 20.7364 4.16399C20.9052 4.33278 21 4.5617 21 4.80039V9.75039C20.4033 9.75039 19.831 9.98744 19.409 10.4094C18.9871 10.8314 18.75 11.4037 18.75 12.0004C18.75 12.5971 18.9871 13.1694 19.409 13.5914C19.831 14.0133 20.4033 14.2504 21 14.2504V19.2004C21 19.4391 20.9052 19.668 20.7364 19.8368C20.5676 20.0056 20.3387 20.1004 20.1 20.1004H3.9C3.66131 20.1004 3.43239 20.0056 3.2636 19.8368C3.09482 19.668 3 19.4391 3 19.2004V4.80039ZM8.4765 18.3004C8.56926 18.0367 8.7416 17.8083 8.96971 17.6467C9.19782 17.4852 9.47046 17.3984 9.75 17.3984C10.0295 17.3984 10.3022 17.4852 10.5303 17.6467C10.7584 17.8083 10.9307 18.0367 11.0235 18.3004H19.2V15.6292C18.5239 15.2941 17.9549 14.7768 17.557 14.1357C17.1592 13.4945 16.9484 12.755 16.9484 12.0004C16.9484 11.2458 17.1592 10.5063 17.557 9.8651C17.9549 9.22394 18.5239 8.70666 19.2 8.37159V5.70039H11.0235C10.9307 5.96409 10.7584 6.19248 10.5303 6.35405C10.3022 6.51562 10.0295 6.6024 9.75 6.6024C9.47046 6.6024 9.19782 6.51562 8.96971 6.35405C8.7416 6.19248 8.56926 5.96409 8.4765 5.70039H4.8V18.3004H8.4765ZM9.75 11.1004C9.39196 11.1004 9.04858 10.9582 8.79541 10.705C8.54223 10.4518 8.4 10.1084 8.4 9.75039C8.4 9.39235 8.54223 9.04897 8.79541 8.7958C9.04858 8.54262 9.39196 8.40039 9.75 8.40039C10.108 8.40039 10.4514 8.54262 10.7046 8.7958C10.9578 9.04897 11.1 9.39235 11.1 9.75039C11.1 10.1084 10.9578 10.4518 10.7046 10.705C10.4514 10.9582 10.108 11.1004 9.75 11.1004ZM9.75 15.6004C9.39196 15.6004 9.04858 15.4582 8.79541 15.205C8.54223 14.9518 8.4 14.6084 8.4 14.2504C8.4 13.8923 8.54223 13.549 8.79541 13.2958C9.04858 13.0426 9.39196 12.9004 9.75 12.9004C10.108 12.9004 10.4514 13.0426 10.7046 13.2958C10.9578 13.549 11.1 13.8923 11.1 14.2504C11.1 14.6084 10.9578 14.9518 10.7046 15.205C10.4514 15.4582 10.108 15.6004 9.75 15.6004Z" fill="#E9358F"/>
</svg>
