<svg width="24" height="24" viewBox="0 0 24 24" fill="none" xmlns="http://www.w3.org/2000/svg">
<path d="M3 4.80002C3 4.56133 3.09482 4.33241 3.2636 4.16363C3.43239 3.99485 3.66131 3.90002 3.9 3.90002H20.1C20.3387 3.90002 20.5676 3.99485 20.7364 4.16363C20.9052 4.33241 21 4.56133 21 4.80002V9.75002C20.4033 9.75002 19.831 9.98708 19.409 10.409C18.9871 10.831 18.75 11.4033 18.75 12C18.75 12.5968 18.9871 13.1691 19.409 13.591C19.831 14.013 20.4033 14.25 21 14.25V19.2C21 19.4387 20.9052 19.6676 20.7364 19.8364C20.5676 20.0052 20.3387 20.1 20.1 20.1H3.9C3.66131 20.1 3.43239 20.0052 3.2636 19.8364C3.09482 19.6676 3 19.4387 3 19.2V4.80002ZM8.4765 18.3C8.56926 18.0363 8.7416 17.8079 8.96971 17.6464C9.19782 17.4848 9.47046 17.398 9.75 17.398C10.0295 17.398 10.3022 17.4848 10.5303 17.6464C10.7584 17.8079 10.9307 18.0363 11.0235 18.3H19.2V15.6288C18.5239 15.2938 17.9549 14.7765 17.557 14.1353C17.1592 13.4941 16.9484 12.7546 16.9484 12C16.9484 11.2455 17.1592 10.5059 17.557 9.86474C17.9549 9.22357 18.5239 8.70629 19.2 8.37122V5.70002H11.0235C10.9307 5.96372 10.7584 6.19212 10.5303 6.35369C10.3022 6.51526 10.0295 6.60203 9.75 6.60203C9.47046 6.60203 9.19782 6.51526 8.96971 6.35369C8.7416 6.19212 8.56926 5.96372 8.4765 5.70002H4.8V18.3H8.4765ZM9.75 11.1C9.39196 11.1 9.04858 10.9578 8.79541 10.7046C8.54223 10.4514 8.4 10.1081 8.4 9.75002C8.4 9.39198 8.54223 9.0486 8.79541 8.79543C9.04858 8.54226 9.39196 8.40002 9.75 8.40002C10.108 8.40002 10.4514 8.54226 10.7046 8.79543C10.9578 9.0486 11.1 9.39198 11.1 9.75002C11.1 10.1081 10.9578 10.4514 10.7046 10.7046C10.4514 10.9578 10.108 11.1 9.75 11.1ZM9.75 15.6C9.39196 15.6 9.04858 15.4578 8.79541 15.2046C8.54223 14.9514 8.4 14.6081 8.4 14.25C8.4 13.892 8.54223 13.5486 8.79541 13.2954C9.04858 13.0423 9.39196 12.9 9.75 12.9C10.108 12.9 10.4514 13.0423 10.7046 13.2954C10.9578 13.5486 11.1 13.892 11.1 14.25C11.1 14.6081 10.9578 14.9514 10.7046 15.2046C10.4514 15.4578 10.108 15.6 9.75 15.6Z" fill="#5335E9"/>
</svg>
