<svg width="48" height="48" viewBox="0 0 48 48" fill="none" xmlns="http://www.w3.org/2000/svg">
<path d="M0 24C0 10.7452 10.7452 0 24 0C37.2548 0 48 10.7452 48 24C48 37.2548 37.2548 48 24 48C10.7452 48 0 37.2548 0 24Z" fill="#FEE9F3"/>
<path d="M16.7998 31C16.7998 29.0904 17.5584 27.2591 18.9086 25.9088C20.2589 24.5586 22.0902 23.8 23.9998 23.8C25.9094 23.8 27.7407 24.5586 29.091 25.9088C30.4412 27.2591 31.1998 29.0904 31.1998 31H29.3998C29.3998 29.5678 28.8309 28.1943 27.8182 27.1816C26.8055 26.1689 25.432 25.6 23.9998 25.6C22.5676 25.6 21.1941 26.1689 20.1814 27.1816C19.1687 28.1943 18.5998 29.5678 18.5998 31H16.7998ZM23.9998 22.9C21.0163 22.9 18.5998 20.4835 18.5998 17.5C18.5998 14.5165 21.0163 12.1 23.9998 12.1C26.9833 12.1 29.3998 14.5165 29.3998 17.5C29.3998 20.4835 26.9833 22.9 23.9998 22.9ZM23.9998 21.1C25.9888 21.1 27.5998 19.489 27.5998 17.5C27.5998 15.511 25.9888 13.9 23.9998 13.9C22.0108 13.9 20.3998 15.511 20.3998 17.5C20.3998 19.489 22.0108 21.1 23.9998 21.1Z" fill="#322FEB"/>
</svg>
